<?xml version="1.0" encoding="utf-8"?>
<svg width="800px" height="800px" viewBox="0 0 24 24" fill="none" xmlns="http://www.w3.org/2000/svg">
  <path d="M14.5 8.00003C14.5 8.00003 16 10 16 12C16 14 14.5 16 14.5 16" stroke="#000000" stroke-width="1.5" stroke-linecap="round" stroke-linejoin="round"/>
  <path d="M17.5 5.5C17.5 5.5 20.5 8.5 20.5 12C20.5 15.5 17.5 18.5 17.5 18.5" stroke="#000000" stroke-width="1.5" stroke-linecap="round" stroke-linejoin="round"/>
  <path d="M3.5 10.5H6.5L10 7.5C10.6667 7.16667 12 7.6 12 9V15C12 16.4 10.6667 16.8333 10 16.5L6.5 13.5H3.5C2.5 13.5 2 13 2 12V12C2 11 2.5 10.5 3.5 10.5Z" stroke="#000000" stroke-width="1.5" stroke-linecap="round" stroke-linejoin="round"/>
</svg>
